  0
SECTION
  2
HEADER
  9
$ACADVER
  1
AC1015
  9
$ACADMAINTVER
 70
     6
  9
$DWGCODEPAGE
  3
ANSI_1252
  9
$INSBASE
 10
0.0
 20
0.0
 30
0.0
  9
$EXTMIN
 10
-72.7295242947
 20
-41.2454514334
 30
0.0
  9
$EXTMAX
 10
13.6862860096
 20
39.2141259846
 30
0.0
  9
$LIMMIN
 10
0.0
 20
0.0
  9
$LIMMAX
 10
420.0
 20
297.0
  9
$ORTHOMODE
 70
     0
  9
$REGENMODE
 70
     1
  9
$FILLMODE
 70
     1
  9
$QTEXTMODE
 70
     0
  9
$MIRRTEXT
 70
     1
  9
$LTSCALE
 40
1.0
  9
$ATTMODE
 70
     1
  9
$TEXTSIZE
 40
3.5
  9
$TRACEWID
 40
1.0
  9
$TEXTSTYLE
  7
Standard
  9
$CLAYER
  8
0
  9
$CELTYPE
  6
ByLayer
  9
$CECOLOR
 62
   256
  9
$CELTSCALE
 40
1.0
  9
$DISPSILH
 70
     0
  9
$DIMSCALE
 40
1.0
  9
$DIMASZ
 40
3.302
  9
$DIMEXO
 40
1.0
  9
$DIMDLI
 40
3.75
  9
$DIMRND
 40
0.0
  9
$DIMDLE
 40
0.0
  9
$DIMEXE
 40
1.0
  9
$DIMTP
 40
0.0
  9
$DIMTM
 40
0.0
  9
$DIMTXT
 40
3.5
  9
$DIMCEN
 40
2.5
  9
$DIMTSZ
 40
0.0
  9
$DIMTOL
 70
     0
  9
$DIMLIM
 70
     0
  9
$DIMTIH
 70
     1
  9
$DIMTOH
 70
     1
  9
$DIMSE1
 70
     0
  9
$DIMSE2
 70
     0
  9
$DIMTAD
 70
     1
  9
$DIMZIN
 70
     0
  9
$DIMBLK
  1

  9
$DIMASO
 70
     1
  9
$DIMSHO
 70
     1
  9
$DIMPOST
  1

  9
$DIMAPOST
  1

  9
$DIMALT
 70
     0
  9
$DIMALTD
 70
     3
  9
$DIMALTF
 40
0.0393700787
  9
$DIMLFAC
 40
1.0
  9
$DIMTOFL
 70
     1
  9
$DIMTVP
 40
0.0
  9
$DIMTIX
 70
     0
  9
$DIMSOXD
 70
     0
  9
$DIMSAH
 70
     0
  9
$DIMBLK1
  1

  9
$DIMBLK2
  1

  9
$DIMSTYLE
  2
ISO-25
  9
$DIMCLRD
 70
     0
  9
$DIMCLRE
 70
     0
  9
$DIMCLRT
 70
     0
  9
$DIMTFAC
 40
1.0
  9
$DIMGAP
 40
1.524
  9
$DIMJUST
 70
     0
  9
$DIMSD1
 70
     0
  9
$DIMSD2
 70
     0
  9
$DIMTOLJ
 70
     0
  9
$DIMTZIN
 70
     0
  9
$DIMALTZ
 70
     0
  9
$DIMALTTZ
 70
     0
  9
$DIMUPT
 70
     0
  9
$DIMDEC
 70
     2
  9
$DIMTDEC
 70
     2
  9
$DIMALTU
 70
     2
  9
$DIMALTTD
 70
     3
  9
$DIMTXSTY
  7
Standard
  9
$DIMAUNIT
 70
     0
  9
$DIMADEC
 70
     2
  9
$DIMALTRND
 40
0.0
  9
$DIMAZIN
 70
     0
  9
$DIMDSEP
 70
    44
  9
$DIMATFIT
 70
     3
  9
$DIMFRAC
 70
     0
  9
$DIMLDRBLK
  1

  9
$DIMLUNIT
 70
     2
  9
$DIMLWD
 70
    -2
  9
$DIMLWE
 70
    -2
  9
$DIMTMOVE
 70
     0
  9
$LUNITS
 70
     2
  9
$LUPREC
 70
     2
  9
$SKETCHINC
 40
1.0
  9
$FILLETRAD
 40
10.0
  9
$AUNITS
 70
     0
  9
$AUPREC
 70
     2
  9
$MENU
  1
.
  9
$ELEVATION
 40
0.0
  9
$PELEVATION
 40
0.0
  9
$THICKNESS
 40
0.0
  9
$LIMCHECK
 70
     0
  9
$CHAMFERA
 40
10.0
  9
$CHAMFERB
 40
10.0
  9
$CHAMFERC
 40
20.0
  9
$CHAMFERD
 40
0.0
  9
$SKPOLY
 70
     0
  9
$TDCREATE
 40
2457705.573626227
  9
$TDUCREATE
 40
2457705.34445956
  9
$TDUPDATE
 40
2457705.573757604
  9
$TDUUPDATE
 40
2457705.344590938
  9
$TDINDWG
 40
0.0000000116
  9
$TDUSRTIMER
 40
0.0000000116
  9
$USRTIMER
 70
     1
  9
$ANGBASE
 50
0.0
  9
$ANGDIR
 70
     0
  9
$PDMODE
 70
     0
  9
$PDSIZE
 40
-1.0
  9
$PLINEWID
 40
0.0
  9
$SPLFRAME
 70
     0
  9
$SPLINETYPE
 70
     6
  9
$SPLINESEGS
 70
     8
  9
$HANDSEED
  5
89
  9
$SURFTAB1
 70
     6
  9
$SURFTAB2
 70
     6
  9
$SURFTYPE
 70
     6
  9
$SURFU
 70
     6
  9
$SURFV
 70
     6
  9
$UCSBASE
  2

  9
$UCSNAME
  2

  9
$UCSORG
 10
0.0
 20
0.0
 30
0.0
  9
$UCSXDIR
 10
1.0
 20
0.0
 30
0.0
  9
$UCSYDIR
 10
0.0
 20
1.0
 30
0.0
  9
$UCSORTHOREF
  2

  9
$UCSORTHOVIEW
 70
     0
  9
$UCSORGTOP
 10
0.0
 20
0.0
 30
0.0
  9
$UCSORGBOTTOM
 10
0.0
 20
0.0
 30
0.0
  9
$UCSORGLEFT
 10
0.0
 20
0.0
 30
0.0
  9
$UCSORGRIGHT
 10
0.0
 20
0.0
 30
0.0
  9
$UCSORGFRONT
 10
0.0
 20
0.0
 30
0.0
  9
$UCSORGBACK
 10
0.0
 20
0.0
 30
0.0
  9
$PUCSBASE
  2

  9
$PUCSNAME
  2

  9
$PUCSORG
 10
0.0
 20
0.0
 30
0.0
  9
$PUCSXDIR
 10
1.0
 20
0.0
 30
0.0
  9
$PUCSYDIR
 10
0.0
 20
1.0
 30
0.0
  9
$PUCSORTHOREF
  2

  9
$PUCSORTHOVIEW
 70
     0
  9
$PUCSORGTOP
 10
0.0
 20
0.0
 30
0.0
  9
$PUCSORGBOTTOM
 10
0.0
 20
0.0
 30
0.0
  9
$PUCSORGLEFT
 10
0.0
 20
0.0
 30
0.0
  9
$PUCSORGRIGHT
 10
0.0
 20
0.0
 30
0.0
  9
$PUCSORGFRONT
 10
0.0
 20
0.0
 30
0.0
  9
$PUCSORGBACK
 10
0.0
 20
0.0
 30
0.0
  9
$USERI1
 70
     0
  9
$USERI2
 70
     0
  9
$USERI3
 70
     0
  9
$USERI4
 70
     0
  9
$USERI5
 70
     0
  9
$USERR1
 40
0.0
  9
$USERR2
 40
0.0
  9
$USERR3
 40
0.0
  9
$USERR4
 40
0.0
  9
$USERR5
 40
0.0
  9
$WORLDVIEW
 70
     1
  9
$SHADEDGE
 70
     3
  9
$SHADEDIF
 70
    70
  9
$TILEMODE
 70
     1
  9
$MAXACTVP
 70
    64
  9
$PINSBASE
 10
0.0
 20
0.0
 30
0.0
  9
$PLIMCHECK
 70
     0
  9
$PEXTMIN
 10
1.0000000000E+20
 20
1.0000000000E+20
 30
1.0000000000E+20
  9
$PEXTMAX
 10
-1.0000000000E+20
 20
-1.0000000000E+20
 30
-1.0000000000E+20
  9
$PLIMMIN
 10
0.0
 20
0.0
  9
$PLIMMAX
 10
420.0
 20
297.0
  9
$UNITMODE
 70
     0
  9
$VISRETAIN
 70
     1
  9
$PLINEGEN
 70
     0
  9
$PSLTSCALE
 70
     1
  9
$TREEDEPTH
 70
  3020
  9
$CMLSTYLE
  2
Standard
  9
$CMLJUST
 70
     0
  9
$CMLSCALE
 40
20.0
  9
$PROXYGRAPHICS
 70
     1
  9
$MEASUREMENT
 70
     1
  9
$CELWEIGHT
370
    -1
  9
$ENDCAPS
280
     0
  9
$JOINSTYLE
280
     0
  9
$LWDISPLAY
290
     1
  9
$INSUNITS
 70
     4
  9
$HYPERLINKBASE
  1

  9
$STYLESHEET
  1

  9
$XEDIT
290
     1
  9
$CEPSNTYPE
380
     0
  9
$PSTYLEMODE
290
     1
  9
$FINGERPRINTGUID
  2
{88C27C64-1BB0-4126-B66E-A2F7FE65AB88}
  9
$VERSIONGUID
  2
{FAEB1C32-E019-11D5-929B-00C0DF256EC4}
  9
$EXTNAMES
290
     1
  9
$PSVPSCALE
 40
0.0
  9
$OLESTARTUP
290
     0
  0
ENDSEC
  0
SECTION
  2
CLASSES
  0
CLASS
  1
ACDBDICTIONARYWDFLT
  2
AcDbDictionaryWithDefault
  3
ObjectDBX Classes
 90
        0
280
     0
281
     0
  0
CLASS
  1
VISUALSTYLE
  2
AcDbVisualStyle
  3
ObjectDBX Classes
 90
     4095
280
     0
281
     0
  0
CLASS
  1
MATERIAL
  2
AcDbMaterial
  3
ObjectDBX Classes
 90
     1153
280
     0
281
     0
  0
CLASS
  1
ACDBPLACEHOLDER
  2
AcDbPlaceHolder
  3
ObjectDBX Classes
 90
        0
280
     0
281
     0
  0
CLASS
  1
LAYOUT
  2
AcDbLayout
  3
ObjectDBX Classes
 90
        0
280
     0
281
     0
  0
ENDSEC
  0
SECTION
  2
TABLES
  0
TABLE
  2
VPORT
  5
8
330
0
100
AcDbSymbolTable
 70
     1
  0
VPORT
  5
29
330
8
100
AcDbSymbolTableRecord
100
AcDbViewportTableRecord
  2
*Active
 70
     0
 10
0.0
 20
0.0
 11
1.0
 21
1.0
 12
-29.5216191426
 22
-1.0156627244
 13
0.0
 23
0.0
 14
10.0
 24
10.0
 15
10.0
 25
10.0
 16
0.0
 26
0.0
 36
1.0
 17
0.0
 27
0.0
 37
0.0
 40
82.0687689663
 41
1.0740276432
 42
50.0
 43
0.0
 44
0.0
 50
0.0
 51
0.0
 71
     0
 72
   100
 73
     1
 74
     3
 75
     0
 76
     0
 77
     0
 78
     0
281
     0
 65
     1
110
0.0
120
0.0
130
0.0
111
1.0
121
0.0
131
0.0
112
0.0
122
1.0
132
0.0
 79
     0
146
0.0
  0
ENDTAB
  0
TABLE
  2
LTYPE
  5
5
330
0
100
AcDbSymbolTable
 70
     6
  0
LTYPE
  5
14
330
5
100
AcDbSymbolTableRecord
100
AcDbLinetypeTableRecord
  2
ByBlock
 70
     0
  3

 72
    65
 73
     0
 40
0.0
  0
LTYPE
  5
15
330
5
100
AcDbSymbolTableRecord
100
AcDbLinetypeTableRecord
  2
ByLayer
 70
     0
  3

 72
    65
 73
     0
 40
0.0
  0
LTYPE
  5
16
330
5
100
AcDbSymbolTableRecord
100
AcDbLinetypeTableRecord
  2
Continuous
 70
     0
  3
Solid line
 72
    65
 73
     0
 40
0.0
  0
LTYPE
  5
3F
330
5
100
AcDbSymbolTableRecord
100
AcDbLinetypeTableRecord
  2
HIDDEN
 70
     0
  3
Hidden __ __ __ __ __ __ __ __ __ __ __ __ __ __
 72
    65
 73
     2
 40
1.905
 49
1.27
 74
     0
 49
-0.635
 74
     0
  0
LTYPE
  5
40
330
5
100
AcDbSymbolTableRecord
100
AcDbLinetypeTableRecord
  2
PHANTOM
 70
     0
  3
Phantom ______  __  __  ______  __  __  ______
 72
    65
 73
     6
 40
12.7
 49
6.35
 74
     0
 49
-1.27
 74
     0
 49
1.27
 74
     0
 49
-1.27
 74
     0
 49
1.27
 74
     0
 49
-1.27
 74
     0
  0
LTYPE
  5
41
330
5
100
AcDbSymbolTableRecord
100
AcDbLinetypeTableRecord
  2
CENTER
 70
     0
  3
Center ____ _ ____ _ ____ _ ____ _ ____ _ ____
 72
    65
 73
     4
 40
10.16
 49
6.35
 74
     0
 49
-1.27
 74
     0
 49
1.27
 74
     0
 49
-1.27
 74
     0
  0
LTYPE
  5
42
330
5
100
AcDbSymbolTableRecord
100
AcDbLinetypeTableRecord
  2
CENTERX2
 70
     0
  3
Center (2x) ________  __  ________  __  _____
 72
    65
 73
     4
 40
20.32
 49
12.7
 74
     0
 49
-2.54
 74
     0
 49
2.54
 74
     0
 49
-2.54
 74
     0
  0
LTYPE
  5
43
330
5
100
AcDbSymbolTableRecord
100
AcDbLinetypeTableRecord
  2
DOT2
 70
     0
  3
Dot (.5x) ........................................
 72
    65
 73
     2
 40
0.635
 49
0.0
 74
     0
 49
-0.635
 74
     0
  0
ENDTAB
  0
TABLE
  2
LAYER
  5
2
330
0
100
AcDbSymbolTable
 70
     1
  0
LAYER
  5
10
330
2
100
AcDbSymbolTableRecord
100
AcDbLayerTableRecord
  2
0
 70
     0
 62
     7
  6
Continuous
370
    -3
390
F
  0
ENDTAB
  0
TABLE
  2
STYLE
  5
3
330
0
100
AcDbSymbolTable
 70
     1
  0
STYLE
  5
11
330
3
100
AcDbSymbolTableRecord
100
AcDbTextStyleTableRecord
  2
Standard
 70
     0
 40
0.0
 41
1.0
 50
0.0
 71
     0
 42
3.5
  3
txt
  4

  0
ENDTAB
  0
TABLE
  2
VIEW
  5
6
330
0
100
AcDbSymbolTable
 70
     0
  0
ENDTAB
  0
TABLE
  2
UCS
  5
7
330
0
100
AcDbSymbolTable
 70
     0
  0
ENDTAB
  0
TABLE
  2
APPID
  5
9
330
0
100
AcDbSymbolTable
 70
     1
  0
APPID
  5
12
330
9
100
AcDbSymbolTableRecord
100
AcDbRegAppTableRecord
  2
ACAD
 70
     0
  0
ENDTAB
  0
TABLE
  2
DIMSTYLE
  5
A
330
0
100
AcDbSymbolTable
 70
     1
100
AcDbDimStyleTable
  0
DIMSTYLE
105
27
330
A
100
AcDbSymbolTableRecord
100
AcDbDimStyleTableRecord
  2
ISO-25
 70
     0
 41
2.5
 42
0.625
 43
3.75
 44
1.25
 73
     0
 74
     0
 77
     1
 78
     8
140
2.5
141
2.5
143
0.0393700787
147
0.625
171
     3
172
     1
178
     0
271
     2
272
     2
274
     3
278
    44
283
     0
284
     8
340
11
  0
ENDTAB
  0
TABLE
  2
BLOCK_RECORD
  5
1
330
0
100
AcDbSymbolTable
 70
     1
  0
BLOCK_RECORD
  5
1F
330
1
100
AcDbSymbolTableRecord
100
AcDbBlockTableRecord
  2
*Model_Space
340
22
  0
BLOCK_RECORD
  5
1B
330
1
100
AcDbSymbolTableRecord
100
AcDbBlockTableRecord
  2
*Paper_Space
340
1E
  0
BLOCK_RECORD
  5
23
330
1
100
AcDbSymbolTableRecord
100
AcDbBlockTableRecord
  2
*Paper_Space0
340
26
  0
ENDTAB
  0
ENDSEC
  0
SECTION
  2
BLOCKS
  0
BLOCK
  5
20
330
1F
100
AcDbEntity
  8
0
100
AcDbBlockBegin
  2
*Model_Space
 70
     0
 10
0.0
 20
0.0
 30
0.0
  3
*Model_Space
  1

  0
ENDBLK
  5
21
330
1F
100
AcDbEntity
  8
0
100
AcDbBlockEnd
  0
BLOCK
  5
1C
330
1B
100
AcDbEntity
 67
     1
  8
0
100
AcDbBlockBegin
  2
*Paper_Space
 70
     0
 10
0.0
 20
0.0
 30
0.0
  3
*Paper_Space
  1

  0
ENDBLK
  5
1D
330
1B
100
AcDbEntity
 67
     1
  8
0
100
AcDbBlockEnd
  0
BLOCK
  5
24
330
23
100
AcDbEntity
  8
0
100
AcDbBlockBegin
  2
*Paper_Space0
 70
     0
 10
0.0
 20
0.0
 30
0.0
  3
*Paper_Space0
  1

  0
ENDBLK
  5
25
330
23
100
AcDbEntity
  8
0
100
AcDbBlockEnd
  0
ENDSEC
  0
SECTION
  2
ENTITIES
  0
LWPOLYLINE
  5
45
330
1F
100
AcDbEntity
  8
0
  6
Continuous
 62
     7
370
    15
100
AcDbPolyline
 90
       32
 70
   128
 43
0.0
 10
1.6038086565
 20
-6.1220667436
 10
1.9645104434
 20
-6.1269920751
 10
2.3215154112
 20
-6.0505980234
 10
2.6602077344
 20
-5.89601217
 10
2.9667213097
 20
-5.6695632777
 10
3.2285074352
 20
-5.380522191
 10
3.4348485561
 20
-5.0407222859
 10
3.5772970429
 20
-4.6640750103
 10
3.6500210376
 20
-4.266000348
 10
3.6500432114
 20
-3.8627955225
 10
3.5773626564
 20
-3.4709677867
 10
3.4349549232
 20
-3.1065586141
 10
3.2286502011
 20
-2.7844869591
 10
2.9668946296
 20
-2.517938473
 10
2.6604045126
 20
-2.3178256823
 10
2.3217275915
 20
-2.192341228
 10
1.9647293393
 20
-2.1466224585
 10
1.6040253062
 20
-2.1825411056
 10
1.2543827579
 20
-2.2986266556
 10
0.9301161013
 20
-2.4901265524
 10
0.6445008514
 20
-2.7492007679
 10
0.4092301302
 20
-3.0652427732
 10
0.2339359486
 20
-3.4253137714
 10
0.125794871
 20
-3.8146724136
 10
0.0892342058
 20
-4.2173783112
 10
0.1257507509
 20
-4.6169446375
 10
0.2338495148
 20
-4.9970131
 10
0.4091049212
 20
-5.3420236514
 10
0.6443419934
 20
-5.6378515191
 10
0.9299300978
 20
-5.8723854754
 10
1.254177224
 20
-6.0360236726
 10
1.6038086565
 20
-6.1220667436
  0
LWPOLYLINE
  5
46
330
1F
100
AcDbEntity
  8
0
  6
Continuous
 62
     7
370
    15
100
AcDbPolyline
 90
       32
 70
   128
 43
0.0
 10
-60.1494090716
 20
1.7863224704
 10
-59.7887072847
 20
1.7813971388
 10
-59.431702317
 20
1.8577911905
 10
-59.0930099937
 20
2.012377044
 10
-58.7864964184
 20
2.2388259362
 10
-58.524710293
 20
2.5278670229
 10
-58.318369172
 20
2.8676669281
 10
-58.1759206852
 20
3.2443142037
 10
-58.1031966905
 20
3.6423888659
 10
-58.1031745168
 20
4.0455936914
 10
-58.1758550717
 20
4.4374214273
 10
-58.3182628049
 20
4.8018305998
 10
-58.524567527
 20
5.1239022549
 10
-58.7863230985
 20
5.3904507409
 10
-59.0928132155
 20
5.5905635317
 10
-59.4314901366
 20
5.716047986
 10
-59.7884883889
 20
5.7617667555
 10
-60.1491924219
 20
5.7258481084
 10
-60.4988349703
 20
5.6097625584
 10
-60.8231016269
 20
5.4182626615
 10
-61.1087168767
 20
5.1591884461
 10
-61.3439875979
 20
4.8431464408
 10
-61.5192817796
 20
4.4830754426
 10
-61.6274228572
 20
4.0937168004
 10
-61.6639835224
 20
3.6910109028
 10
-61.6274669772
 20
3.2914445765
 10
-61.5193682133
 20
2.9113761139
 10
-61.3441128069
 20
2.5663655626
 10
-61.1088757347
 20
2.2705376949
 10
-60.8232876303
 20
2.0360037386
 10
-60.4990405041
 20
1.8723655414
 10
-60.1494090716
 20
1.7863224704
  0
LWPOLYLINE
  5
47
330
1F
100
AcDbEntity
  8
0
  6
Continuous
 62
     7
370
    15
100
AcDbPolyline
 90
       32
 70
   128
 43
0.0
 10
-40.6130181559
 20
29.8378494223
 10
-40.252316369
 20
29.8329240908
 10
-39.8953114013
 20
29.9093181425
 10
-39.556619078
 20
30.0639039959
 10
-39.2501055027
 20
30.2903528882
 10
-38.9883193773
 20
30.5793939749
 10
-38.7819782563
 20
30.91919388
 10
-38.6395297695
 20
31.2958411556
 10
-38.5668057748
 20
31.6939158179
 10
-38.5667836011
 20
32.0971206434
 10
-38.639464156
 20
32.4889483792
 10
-38.7818718892
 20
32.8533575518
 10
-38.9881766113
 20
33.1754292068
 10
-39.2499321828
 20
33.4419776929
 10
-39.5564222998
 20
33.6420904836
 10
-39.8950992209
 20
33.7675749379
 10
-40.2520974732
 20
33.8132937074
 10
-40.6128015062
 20
33.7773750603
 10
-40.9624440546
 20
33.6612895103
 10
-41.2867107112
 20
33.4697896135
 10
-41.572325961
 20
33.210715398
 10
-41.8075966822
 20
32.8946733927
 10
-41.9828908639
 20
32.5346023945
 10
-42.0910319415
 20
32.1452437523
 10
-42.1275926067
 20
31.7425378547
 10
-42.0910760615
 20
31.3429715284
 10
-41.9829772976
 20
30.9629030659
 10
-41.8077218912
 20
30.6178925145
 10
-41.572484819
 20
30.3220646468
 10
-41.2868967146
 20
30.0875306905
 10
-40.9626495884
 20
29.9238924934
 10
-40.6130181559
 20
29.8378494223
  0
LWPOLYLINE
  5
54
330
1F
100
AcDbEntity
  8
0
  6
Continuous
 62
     7
370
    15
100
AcDbPolyline
 90
       32
 70
   128
 43
0.0
 10
-27.3801857856
 20
28.1431945907
 10
-27.0194839987
 20
28.1382692592
 10
-26.6624790309
 20
28.2146633109
 10
-26.3237867077
 20
28.3692491644
 10
-26.0172731324
 20
28.5956980566
 10
-25.7554870069
 20
28.8847391433
 10
-25.549145886
 20
29.2245390485
 10
-25.4066973992
 20
29.601186324
 10
-25.3339734045
 20
29.9992609863
 10
-25.3339512307
 20
30.4024658118
 10
-25.4066317857
 20
30.7942935476
 10
-25.5490395189
 20
31.1587027202
 10
-25.755344241
 20
31.4807743752
 10
-26.0170998125
 20
31.7473228613
 10
-26.3235899295
 20
31.9474356521
 10
-26.6622668506
 20
32.0729201063
 10
-27.0192651029
 20
32.1186388758
 10
-27.3799691359
 20
32.0827202288
 10
-27.7296116843
 20
31.9666346788
 10
-28.0538783409
 20
31.7751347819
 10
-28.3394935907
 20
31.5160605664
 10
-28.5747643119
 20
31.2000185612
 10
-28.7500584935
 20
30.839947563
 10
-28.8581995712
 20
30.4505889208
 10
-28.8947602364
 20
30.0478830231
 10
-28.8582436912
 20
29.6483166969
 10
-28.7501449273
 20
29.2682482343
 10
-28.5748895209
 20
28.9232376829
 10
-28.3396524487
 20
28.6274098153
 10
-28.0540643443
 20
28.392875859
 10
-27.7298172181
 20
28.2292376618
 10
-27.3801857856
 20
28.1431945907
  0
LWPOLYLINE
  5
55
330
1F
100
AcDbEntity
  8
0
  6
Continuous
 62
     7
370
    15
100
AcDbPolyline
 90
       32
 70
   128
 43
0.0
 10
-16.0399678372
 20
-3.8625269682
 10
-15.6792660503
 20
-3.8674522997
 10
-15.3222610826
 20
-3.791058248
 10
-14.9835687593
 20
-3.6364723945
 10
-14.6770551841
 20
-3.4100235023
 10
-14.4152690586
 20
-3.1209824156
 10
-14.2089279376
 20
-2.7811825105
 10
-14.0664794509
 20
-2.4045352349
 10
-13.9937554562
 20
-2.0064605726
 10
-13.9937332824
 20
-1.6032557471
 10
-14.0664138373
 20
-1.2114280113
 10
-14.2088215705
 20
-0.8470188387
 10
-14.4151262926
 20
-0.5249471837
 10
-14.6768818641
 20
-0.2583986976
 10
-14.9833719811
 20
-0.0582859069
 10
-15.3220489022
 20
0.0671985474
 10
-15.6790471545
 20
0.1129173169
 10
-16.0397511876
 20
0.0769986699
 10
-16.3893937359
 20
-0.0390868801
 10
-16.7136603925
 20
-0.230586777
 10
-16.9992756424
 20
-0.4896609925
 10
-17.2345463636
 20
-0.8057029978
 10
-17.4098405452
 20
-1.165773996
 10
-17.5179816228
 20
-1.5551326382
 10
-17.554542288
 20
-1.9578385358
 10
-17.5180257428
 20
-2.357404862
 10
-17.409926979
 20
-2.7374733246
 10
-17.2346715725
 20
-3.082483876
 10
-16.9994345004
 20
-3.3783117437
 10
-16.7138463959
 20
-3.6128456999
 10
-16.3895992697
 20
-3.7764838971
 10
-16.0399678372
 20
-3.8625269682
  0
LINE
  5
69
330
1F
100
AcDbEntity
  8
0
  6
Continuous
 62
     7
370
    15
100
AcDbLine
 10
10.0201176577
 20
7.5364293661
 30
0.0
 11
7.7647720443
 21
7.9163679248
 31
0.0
  0
LINE
  5
6A
330
1F
100
AcDbEntity
  8
0
  6
Continuous
 62
     7
370
    15
100
AcDbLine
 10
-66.9820986676
 20
17.4918947708
 30
0.0
 11
-72.7295242947
 21
-24.6222200192
 31
0.0
  0
LINE
  5
6B
330
1F
100
AcDbEntity
  8
0
  6
Continuous
 62
     7
370
    15
100
AcDbLine
 10
-41.8029655575
 20
39.2141259846
 30
0.0
 11
-66.9820986676
 21
17.4918947708
 31
0.0
  0
LINE
  5
6C
330
1F
100
AcDbEntity
  8
0
  6
Continuous
 62
     7
370
    15
100
AcDbLine
 10
-23.715866845
 20
36.897812412
 30
0.0
 11
-41.8029655575
 21
39.2141259846
 31
0.0
  0
LINE
  5
6D
330
1F
100
AcDbEntity
  8
0
  6
Continuous
 62
     7
370
    15
100
AcDbLine
 10
-5.2288809395
 20
9.5835055568
 30
0.0
 11
-23.715866845
 21
36.897812412
 31
0.0
  0
LINE
  5
6E
330
1F
100
AcDbEntity
  8
0
  6
Continuous
 62
     7
370
    15
100
AcDbLine
 10
7.6101777501
 20
7.9392791182
 30
0.0
 11
-5.2288809395
 21
9.5835055568
 31
0.0
  0
LINE
  5
6F
330
1F
100
AcDbEntity
  8
0
  6
Continuous
 62
     7
370
    15
100
AcDbLine
 10
7.0100538515
 20
-29.3440790329
 30
0.0
 11
11.3451129208
 21
2.4209558037
 31
0.0
  0
LINE
  5
70
330
1F
100
AcDbEntity
  8
0
  6
Continuous
 62
     7
370
    15
100
AcDbLine
 10
-10.9159579142
 20
-32.0884060211
 30
0.0
 11
1.9231007753
 21
-33.7326324597
 31
0.0
  0
LINE
  5
71
330
1F
100
AcDbEntity
  8
0
  6
Continuous
 62
     7
370
    15
100
AcDbLine
 10
-21.0898640665
 20
-40.8655128747
 30
0.0
 11
-10.9159579142
 21
-32.0884060211
 31
0.0
  0
LINE
  5
72
330
1F
100
AcDbEntity
  8
0
  6
Continuous
 62
     7
370
    15
100
AcDbLine
 10
-65.5930789817
 20
-35.1662350432
 30
0.0
 11
-21.0898640665
 21
-40.8655128747
 31
0.0
  0
LINE
  5
73
330
1F
100
AcDbEntity
  8
0
  6
Continuous
 62
     7
370
    15
100
AcDbLine
 10
-72.7295242947
 20
-24.6222200192
 30
0.0
 11
-65.5930789817
 21
-35.1662350432
 31
0.0
  0
LINE
  5
74
330
1F
100
AcDbEntity
  8
0
  6
Continuous
 62
     7
370
    15
100
AcDbLine
 10
1.9231007753
 20
-33.7326324597
 30
0.0
 11
4.1784463887
 21
-34.1125710184
 31
0.0
  0
LINE
  5
75
330
1F
100
AcDbEntity
  8
0
  6
Continuous
 62
     7
370
    15
100
AcDbLine
 10
7.0100538515
 20
-29.3440790329
 30
0.0
 11
9.2653994649
 21
-29.7240175916
 31
0.0
  0
LINE
  5
76
330
1F
100
AcDbEntity
  8
0
  6
Continuous
 62
     7
370
    15
100
AcDbLine
 10
11.3451129208
 20
2.4209558037
 30
0.0
 11
13.6004585342
 21
2.041017245
 31
0.0
  0
LINE
  5
77
330
1F
100
AcDbEntity
  8
0
  6
Continuous
 62
     7
370
    15
100
AcDbLine
 10
9.2653994649
 20
-29.7240175916
 30
0.0
 11
13.6004585342
 21
2.041017245
 31
0.0
  0
LINE
  5
78
330
1F
100
AcDbEntity
  8
0
  6
Continuous
 62
     7
370
    15
100
AcDbLine
 10
-10.9159579142
 20
-32.0884060211
 30
0.0
 11
-8.6606123008
 21
-32.4683445798
 31
0.0
  0
LINE
  5
79
330
1F
100
AcDbEntity
  8
0
  6
Continuous
 62
     7
370
    15
100
AcDbLine
 10
-8.6606123008
 20
-32.4683445798
 30
0.0
 11
4.1784463887
 21
-34.1125710184
 31
0.0
  0
LINE
  5
7A
330
1F
100
AcDbEntity
  8
0
  6
Continuous
 62
     7
370
    15
100
AcDbLine
 10
-21.0898640665
 20
-40.8655128747
 30
0.0
 11
-18.8345184531
 21
-41.2454514334
 31
0.0
  0
LINE
  5
7B
330
1F
100
AcDbEntity
  8
0
  6
Continuous
 62
     7
370
    15
100
AcDbLine
 10
-18.8345184531
 20
-41.2454514334
 30
0.0
 11
-8.6606123008
 21
-32.4683445798
 31
0.0
  0
LINE
  5
7C
330
1F
100
AcDbEntity
  8
0
  6
Continuous
 62
     7
370
    15
100
AcDbLine
 10
-23.715866845
 20
36.897812412
 30
0.0
 11
-21.4605212317
 21
36.5178738533
 31
0.0
  0
LINE
  5
7D
330
1F
100
AcDbEntity
  8
0
  6
Continuous
 62
     7
370
    15
100
AcDbLine
 10
-3.0410523273
 20
9.3033225828
 30
0.0
 11
-21.4605212317
 21
36.5178738533
 31
0.0
  0
LINE
  5
7E
330
1F
100
AcDbEntity
  8
0
  6
Continuous
 62
     7
370
    15
100
AcDbLine
 10
-65.5930789817
 20
-35.1662350432
 30
0.0
 11
-63.3377333683
 21
-35.5461736019
 31
0.0
  0
LINE
  5
7F
330
1F
100
AcDbEntity
  8
0
  6
Continuous
 62
     7
370
    15
100
AcDbLine
 10
-63.3377333683
 20
-35.5461736019
 30
0.0
 11
-18.8345184531
 21
-41.2454514334
 31
0.0
  0
ARC
  5
80
330
1F
100
AcDbEntity
  8
0
  6
Continuous
 62
     7
370
    15
100
AcDbCircle
 10
6.7300637373
 20
3.3204875407
 30
0.0
 40
4.701897097084707
100
AcDbArc
 50
348.9706092876
 51
79.2115820397
  0
ARC
  5
81
330
1F
100
AcDbEntity
  8
0
  6
Continuous
 62
     7
370
    15
100
AcDbCircle
 10
2.2328243413
 20
-28.9491206504
 30
0.0
 40
4.793528336909973
100
AcDbArc
 50
266.2953751848
 51
355.2738088197
  0
ARC
  5
82
330
1F
100
AcDbEntity
  8
0
  6
Continuous
 62
     7
370
    15
100
AcDbCircle
 10
4.4881699547
 20
-29.3290592092
 30
0.0
 40
4.793528336909969
100
AcDbArc
 50
266.2953751848
 51
355.2738088197
  0
ARC
  5
83
330
1F
100
AcDbEntity
  8
0
  6
Continuous
 62
     7
370
    15
100
AcDbCircle
 10
8.9679169614
 20
2.9368771956
 30
0.0
 40
4.718369048146814
100
AcDbArc
 50
349.0550098964
 51
77.11464642
  0
ARC
  5
84
330
1F
100
AcDbEntity
  8
0
  6
Continuous
 62
     7
370
    15
100
AcDbCircle
 10
4.4830280415
 20
-4.5801760183
 30
0.0
 40
2.145292253920242
100
AcDbArc
 50
124.8761910703
 51
215.9991260277
  0
ARC
  5
85
330
1F
100
AcDbEntity
  8
0
  6
Continuous
 62
     7
370
    15
100
AcDbCircle
 10
-13.1607484523
 20
-2.3206362429
 30
0.0
 40
2.145292253920239
100
AcDbArc
 50
124.8761910703
 51
215.9991260277
  0
ARC
  5
86
330
1F
100
AcDbEntity
  8
0
  6
Continuous
 62
     7
370
    15
100
AcDbCircle
 10
-24.5009664006
 20
29.685085316
 30
0.0
 40
2.145292253920262
100
AcDbArc
 50
124.8761910703
 51
215.9991260277
  0
ARC
  5
87
330
1F
100
AcDbEntity
  8
0
  6
Continuous
 62
     7
370
    15
100
AcDbCircle
 10
-37.7337987709
 20
31.3797401476
 30
0.0
 40
2.145292253920234
100
AcDbArc
 50
124.8761910703
 51
215.9991260277
  0
ARC
  5
88
330
1F
100
AcDbEntity
  8
0
  6
Continuous
 62
     7
370
    15
100
AcDbCircle
 10
-57.2701896866
 20
3.3282131957
 30
0.0
 40
2.145292253920267
100
AcDbArc
 50
124.8761910703
 51
215.9991260276
  0
ENDSEC
  0
SECTION
  2
OBJECTS
  0
DICTIONARY
  5
C
330
0
100
AcDbDictionary
281
     1
  3
ACAD_GROUP
350
D
  3
ACAD_LAYOUT
350
1A
  3
ACAD_MLINESTYLE
350
17
  3
ACAD_PLOTSETTINGS
350
19
  3
ACAD_PLOTSTYLENAME
350
E
  0
DICTIONARY
  5
D
102
{ACAD_REACTORS
330
C
102
}
330
C
100
AcDbDictionary
281
     1
  0
DICTIONARY
  5
1A
102
{ACAD_REACTORS
330
C
102
}
330
C
100
AcDbDictionary
281
     1
  3
Layout1
350
1E
  3
Layout2
350
26
  3
Model
350
22
  0
DICTIONARY
  5
17
102
{ACAD_REACTORS
330
C
102
}
330
C
100
AcDbDictionary
281
     1
  3
Standard
350
18
  0
DICTIONARY
  5
19
102
{ACAD_REACTORS
330
C
102
}
330
C
100
AcDbDictionary
281
     1
  0
ACDBDICTIONARYWDFLT
  5
E
102
{ACAD_REACTORS
330
C
102
}
330
C
100
AcDbDictionary
281
     1
  3
Normal
350
F
100
AcDbDictionaryWithDefault
340
F
  0
LAYOUT
  5
1E
102
{ACAD_REACTORS
330
1A
102
}
330
1A
100
AcDbPlotSettings
  1

  2
none_device
  4

  6

 40
0.0
 41
0.0
 42
0.0
 43
0.0
 44
0.0
 45
0.0
 46
0.0
 47
0.0
 48
0.0
 49
0.0
140
0.0
141
0.0
142
1.0
143
1.0
 70
   688
 72
     0
 73
     0
 74
     5
  7

 75
    16
147
1.0
148
0.0
149
0.0
100
AcDbLayout
  1
Layout1
 70
     1
 71
     1
 10
0.0
 20
0.0
 11
420.0
 21
297.0
 12
0.0
 22
0.0
 32
0.0
 14
1.0000000000E+20
 24
1.0000000000E+20
 34
1.0000000000E+20
 15
-1.0000000000E+20
 25
-1.0000000000E+20
 35
-1.0000000000E+20
146
0.0
 13
0.0
 23
0.0
 33
0.0
 16
1.0
 26
0.0
 36
0.0
 17
0.0
 27
1.0
 37
0.0
 76
     0
330
1B
  0
LAYOUT
  5
26
102
{ACAD_REACTORS
330
1A
102
}
330
1A
100
AcDbPlotSettings
  1

  2
none_device
  4

  6

 40
0.0
 41
0.0
 42
0.0
 43
0.0
 44
0.0
 45
0.0
 46
0.0
 47
0.0
 48
0.0
 49
0.0
140
0.0
141
0.0
142
1.0
143
1.0
 70
   688
 72
     0
 73
     0
 74
     5
  7

 75
    16
147
1.0
148
0.0
149
0.0
100
AcDbLayout
  1
Layout2
 70
     1
 71
     2
 10
0.0
 20
0.0
 11
0.0
 21
0.0
 12
0.0
 22
0.0
 32
0.0
 14
0.0
 24
0.0
 34
0.0
 15
0.0
 25
0.0
 35
0.0
146
0.0
 13
0.0
 23
0.0
 33
0.0
 16
1.0
 26
0.0
 36
0.0
 17
0.0
 27
1.0
 37
0.0
 76
     0
330
23
  0
LAYOUT
  5
22
102
{ACAD_REACTORS
330
1A
102
}
330
1A
100
AcDbPlotSettings
  1

  2
none_device
  4
ANSI_A_(11.00_x_8.50_Inches)
  6

 40
6.35
 41
19.05
 42
6.35000508
 43
19.05000254
 44
279.4
 45
215.9
 46
211.7742273609
 47
91.5981084312
 48
0.0
 49
0.0
140
0.0
141
0.0
142
0.1045866791
143
1.0
 70
  1696
 72
     0
 73
     0
 74
     0
  7

 75
     0
147
0.0179189148
148
0.0
149
0.0
100
AcDbLayout
  1
Model
 70
     1
 71
     0
 10
0.0
 20
0.0
 11
420.0
 21
297.0
 12
0.0
 22
0.0
 32
0.0
 14
-72.7295242947
 24
-41.2454514334
 34
0.0
 15
13.6862860096
 25
39.2141259846
 35
0.0
146
0.0
 13
0.0
 23
0.0
 33
0.0
 16
1.0
 26
0.0
 36
0.0
 17
0.0
 27
1.0
 37
0.0
 76
     0
330
1F
331
29
  0
MLINESTYLE
  5
18
102
{ACAD_REACTORS
330
17
102
}
330
17
100
AcDbMlineStyle
  2
Standard
 70
     0
  3

 62
   256
 51
90.0
 52
90.0
 71
     2
 49
0.5
 62
   256
  6
BYLAYER
 49
-0.5
 62
   256
  6
BYLAYER
  0
ACDBPLACEHOLDER
  5
F
102
{ACAD_REACTORS
330
E
102
}
330
E
  0
ENDSEC
  0
EOF
